<?xml version="1.0" encoding="us-ascii" standalone="no"?><svg xmlns="http://www.w3.org/2000/svg" xmlns:xlink="http://www.w3.org/1999/xlink" contentStyleType="text/css" height="128px" preserveAspectRatio="none" style="width:1006px;height:128px;background:#FFFFFF;" version="1.1" viewBox="0 0 1006 128" width="1006px" zoomAndPan="magnify"><defs/><g><text fill="#000000" font-family="sans-serif" font-size="14" font-weight="bold" lengthAdjust="spacing" textLength="202" x="395.25" y="24.5332">System Architecture Diagram</text><!--entity DataGen--><g id="elem_DataGen"><rect fill="#F1F1F1" height="47.6094" rx="2.5" ry="2.5" style="stroke:#181818;stroke-width:0.5;" width="139" x="7" y="74.9658"/><rect fill="#F1F1F1" height="10" style="stroke:#181818;stroke-width:0.5;" width="15" x="126" y="79.9658"/><rect fill="#F1F1F1" height="2" style="stroke:#181818;stroke-width:0.5;" width="4" x="124" y="81.9658"/><rect fill="#F1F1F1" height="2" style="stroke:#181818;stroke-width:0.5;" width="4" x="124" y="85.9658"/><text fill="#000000" font-family="sans-serif" font-size="14" lengthAdjust="spacing" textLength="99" x="22" y="109.499">Data Generator</text></g><!--entity Mosquitto--><g id="elem_Mosquitto"><rect fill="#F1F1F1" height="47.6094" rx="2.5" ry="2.5" style="stroke:#181818;stroke-width:0.5;" width="147" x="330" y="74.9658"/><rect fill="#F1F1F1" height="10" style="stroke:#181818;stroke-width:0.5;" width="15" x="457" y="79.9658"/><rect fill="#F1F1F1" height="2" style="stroke:#181818;stroke-width:0.5;" width="4" x="455" y="81.9658"/><rect fill="#F1F1F1" height="2" style="stroke:#181818;stroke-width:0.5;" width="4" x="455" y="85.9658"/><text fill="#000000" font-family="sans-serif" font-size="14" lengthAdjust="spacing" textLength="107" x="345" y="109.499">Mosquitto Broker</text></g><!--entity API--><g id="elem_API"><rect fill="#F1F1F1" height="47.6094" rx="2.5" ry="2.5" style="stroke:#181818;stroke-width:0.5;" width="61" x="661" y="74.9658"/><rect fill="#F1F1F1" height="10" style="stroke:#181818;stroke-width:0.5;" width="15" x="702" y="79.9658"/><rect fill="#F1F1F1" height="2" style="stroke:#181818;stroke-width:0.5;" width="4" x="700" y="81.9658"/><rect fill="#F1F1F1" height="2" style="stroke:#181818;stroke-width:0.5;" width="4" x="700" y="85.9658"/><text fill="#000000" font-family="sans-serif" font-size="14" lengthAdjust="spacing" textLength="21" x="676" y="109.499">API</text></g><!--entity Frontend--><g id="elem_Frontend"><rect fill="#F1F1F1" height="47.6094" rx="2.5" ry="2.5" style="stroke:#181818;stroke-width:0.5;" width="98" x="902.5" y="74.9658"/><rect fill="#F1F1F1" height="10" style="stroke:#181818;stroke-width:0.5;" width="15" x="980.5" y="79.9658"/><rect fill="#F1F1F1" height="2" style="stroke:#181818;stroke-width:0.5;" width="4" x="978.5" y="81.9658"/><rect fill="#F1F1F1" height="2" style="stroke:#181818;stroke-width:0.5;" width="4" x="978.5" y="85.9658"/><text fill="#000000" font-family="sans-serif" font-size="14" lengthAdjust="spacing" textLength="58" x="917.5" y="109.499">Frontend</text></g><!--link DataGen to Mosquitto--><g id="link_DataGen_Mosquitto"><path d="M146.25,98.9658 C200.27,98.9658 268.91,98.9658 323.89,98.9658 " fill="none" id="DataGen-to-Mosquitto" style="stroke:#181818;stroke-width:1.0;"/><polygon fill="#181818" points="329.89,98.9658,320.89,94.9658,324.89,98.9658,320.89,102.9658,329.89,98.9658" style="stroke:#181818;stroke-width:1.0;"/><text fill="#000000" font-family="sans-serif" font-size="13" lengthAdjust="spacing" textLength="43" x="216.5" y="59.4609">Publish</text><text fill="#000000" font-family="sans-serif" font-size="13" lengthAdjust="spacing" textLength="147" x="164.5" y="75.8125">Protocol: MQTT over TCP</text><text fill="#000000" font-family="sans-serif" font-size="13" lengthAdjust="spacing" textLength="60" x="208" y="92.1641">Port: 1883</text></g><!--link Mosquitto to API--><g id="link_Mosquitto_API"><path d="M477.29,98.9658 C536.79,98.9658 611.46,98.9658 654.85,98.9658 " fill="none" id="Mosquitto-to-API" style="stroke:#181818;stroke-width:1.0;"/><polygon fill="#181818" points="660.85,98.9658,651.85,94.9658,655.85,98.9658,651.85,102.9658,660.85,98.9658" style="stroke:#181818;stroke-width:1.0;"/><text fill="#000000" font-family="sans-serif" font-size="13" lengthAdjust="spacing" textLength="58" x="540" y="59.4609">Subscribe</text><text fill="#000000" font-family="sans-serif" font-size="13" lengthAdjust="spacing" textLength="147" x="495.5" y="75.8125">Protocol: MQTT over TCP</text><text fill="#000000" font-family="sans-serif" font-size="13" lengthAdjust="spacing" textLength="60" x="539" y="92.1641">Port: 1883</text></g><!--link API to Frontend--><g id="link_API_Frontend"><path d="M722.09,98.9658 C766.52,98.9658 843.38,98.9658 896.42,98.9658 " fill="none" id="API-to-Frontend" style="stroke:#181818;stroke-width:1.0;"/><polygon fill="#181818" points="902.42,98.9658,893.42,94.9658,897.42,98.9658,893.42,102.9658,902.42,98.9658" style="stroke:#181818;stroke-width:1.0;"/><text fill="#000000" font-family="sans-serif" font-size="13" lengthAdjust="spacing" textLength="84" x="770.25" y="59.4609">HTTP Request</text><text fill="#000000" font-family="sans-serif" font-size="13" lengthAdjust="spacing" textLength="144" x="740.25" y="75.8125">Protocol: HTTP over TCP</text><text fill="#000000" font-family="sans-serif" font-size="13" lengthAdjust="spacing" textLength="60" x="782.25" y="92.1641">Port: 8080</text></g><!--SRC=[ZOvDJyCm38Rl-HNMxfEAk5Gz80qgjXqcPMkEND9WiMXjl3aEqluzQQ6quiJ9yllnsEAbGsZkKR273Rkp5tII6A7szeDjhvIZ_ae1Wy2gjc9XYm7P2l4AR8H1oieoTQ1uIrw4u9dfWj-vNt6PtEZzQEQvb5-PWc1u7xrfKUhd5AoVPXfKe5FR-NX-2vf9o55NmU5e3D0dCfWNdGrYgU2XB1_LNCoKV3RtczH6nxx5_n66KkvERsN0pXWD9xmbZB9aZFfVHbcKXVe2]--></g></svg>